<svg id="Layer_1" data-name="Layer 1" xmlns="http://www.w3.org/2000/svg" width="149" height="17" viewBox="0 0 149 17">
    <defs>
        <style>.cls-1{fill:#f2f2f2;}</style>
    </defs>
    <title>logo</title>
    <path class="cls-1" d="M7.7676,1.3345H13.084c3.2514,0,5.87,1.1767,5.87,4.82,0,3.5273-2.6909,5.082-5.87,5.082H11.1592v5.083H7.7676Zm5.12,7.2109c1.8584,0,2.7412-.8335,2.7412-2.3911,0-1.5645-.9555-2.1279-2.7412-2.1279h-1.728v4.519Z"/>
    <path class="cls-1" d="M23.0356,1.3345h5.3282c3.1743,0,5.7866,1.104,5.7866,4.6689,0,3.4429-2.6123,4.9253-5.7866,4.9253h-1.93v5.3906h-3.398Zm5.0518,6.9028c1.7817,0,2.7373-.7666,2.7373-2.2339,0-1.48-.9556-1.977-2.7373-1.977H26.4336V8.2373Zm2-.3755,4.7817,8.4575H31.0752L27.74,10.0352Z"/>
    <path class="cls-1" d="M38.95,1.3345h9.9336V4.1782h-6.542V7.1836h5.5581v2.8437H42.3413v3.4483h6.772v2.8437H38.95Z"/>
    <path class="cls-1" d="M53.3726,14.4307l1.9458-2.3291a6.4127,6.4127,0,0,0,3.9838,1.5644c1.439,0,2.1041-.5576,2.1041-1.29,0-1.0791-.8907-1.34-2.3091-1.9336l-1.9522-.833a4.3663,4.3663,0,0,1-3.1758-4.085c0-2.4819,2.2354-4.4658,5.4912-4.4658A7.26,7.26,0,0,1,64.4375,3.021L62.729,5.1587a5.3755,5.3755,0,0,0-3.4536-1.17c-1.1172,0-1.875.4624-1.875,1.3384,0,.9008,1.0044,1.2309,2.4414,1.77l1.8335.7768c1.9624.7359,3.2017,1.9585,3.2017,4.0738,0,2.49-2.09,4.6484-5.7994,4.6484A8.63,8.63,0,0,1,53.3726,14.4307Z"/>
    <path class="cls-1" d="M88.19,4.1782H83.6973V1.3345H96.0732V4.1782H91.5811V16.3193H88.19Z"/>
    <path class="cls-1" d="M99.2451,8.7583c0-5.0078,2.458-7.7,6.0274-7.7s6.0273,2.6919,6.0273,7.7c0,5.1255-2.458,7.8374-6.0273,7.8374S99.2451,13.8838,99.2451,8.7583Zm8.5772,0c0-3.1138-.9864-4.77-2.55-4.77s-2.55,1.6562-2.55,4.77c0,3.2319.9863,4.9077,2.55,4.9077S107.8223,11.99,107.8223,8.7583Z"/>
    <path class="cls-1" d="M114.6318,8.7583c0-5.0078,2.458-7.7,6.0274-7.7s6.0273,2.6919,6.0273,7.7c0,5.1255-2.458,7.8374-6.0273,7.8374S114.6318,13.8838,114.6318,8.7583Zm8.5772,0c0-3.1138-.9863-4.77-2.55-4.77s-2.55,1.6562-2.55,4.77c0,3.2319.9863,4.9077,2.55,4.9077S123.209,11.99,123.209,8.7583Z"/>
    <path class="cls-1" d="M131.5986,1.3345h3.3848V13.4756h6.6709v2.8437H131.5986Z"/>
</svg> 